<?xml version="1.0" standalone="no"?>
<!DOCTYPE svg PUBLIC "-//W3C//DTD SVG 20010904//EN"
 "http://www.w3.org/TR/2001/REC-SVG-20010904/DTD/svg10.dtd">
<svg version="1.0" xmlns="http://www.w3.org/2000/svg"
 width="120.000000pt" height="120.000000pt" viewBox="0 0 120.000000 120.000000"
 preserveAspectRatio="xMidYMid meet">
<metadata>
Created by potrace 1.14, written by Peter Selinger 2001-2017
</metadata>
<g transform="translate(0.000000,120.000000) scale(0.100000,-0.100000)"
fill="#000000" stroke="none">
<path d="M528 1063 c-193 -279 -180 -248 -120 -298 115 -96 75 -185 -189 -421
-129 -115 -155 -148 -165 -211 -8 -51 6 -77 55 -102 29 -15 46 -18 75 -11 75
17 123 69 212 230 108 196 179 286 249 316 48 20 72 18 157 -12 40 -14 80 -28
88 -30 18 -6 64 65 145 221 32 61 66 125 77 142 25 42 16 55 -34 49 -47 -6
-64 0 -48 19 16 19 1 48 -22 42 -19 -6 -58 23 -58 43 0 18 -19 10 -36 -15 -15
-24 -17 -24 -30 -8 -12 16 -13 14 -14 -19 0 -47 8 -48 38 -4 23 34 24 34 43
15 20 -20 20 -20 -1 -55 -18 -28 -19 -34 -6 -34 8 0 21 10 27 23 12 23 28 37
42 37 5 0 -12 -24 -38 -52 -26 -29 -54 -63 -63 -76 -27 -41 -4 -35 43 12 40
40 65 56 65 42 0 -20 -57 -119 -84 -145 l-34 -33 -51 28 c-28 15 -55 32 -60
38 -6 7 4 32 30 68 21 32 39 62 39 67 0 5 6 12 13 14 9 4 9 6 -2 6 -13 1 -37
-25 -79 -89 -14 -19 -26 -37 -27 -38 -3 -3 -78 44 -104 64 -2 2 11 28 28 59
39 68 25 72 -20 5 -38 -55 -46 -56 -111 -12 l-37 24 20 37 c11 20 29 51 40 69
12 17 17 32 12 32 -7 0 -39 -42 -88 -115 -7 -11 -16 -18 -18 -15 -3 3 29 54
71 113 67 96 77 106 84 87 6 -17 14 -21 33 -18 34 7 32 -8 -10 -66 -34 -48
-46 -55 -25 -15 7 12 7 19 1 19 -10 0 -71 -119 -71 -139 0 -25 27 -7 54 37 62
99 118 156 101 102 -6 -18 -3 -19 37 -15 29 4 49 1 61 -9 18 -14 17 -17 -18
-70 -20 -31 -39 -56 -41 -56 -2 0 3 18 11 40 8 22 12 40 11 40 -9 0 -54 -88
-61 -117 -9 -44 12 -44 42 0 13 17 39 54 58 82 19 27 33 56 30 62 -6 16 7 17
23 1 9 -9 12 -9 12 -1 0 16 -21 28 -43 25 -9 -2 -20 4 -23 12 -3 9 -10 13 -15
10 -5 -3 -9 -1 -9 4 0 5 -18 12 -39 16 -34 5 -40 10 -43 34 -3 27 -8 29 -39
17 -11 -4 -18 0 -22 14 -3 12 -12 21 -20 21 -8 0 -57 -62 -109 -137z m562
-154 c0 -6 -25 -58 -56 -115 -59 -110 -54 -107 -103 -76 -3 1 13 20 35 43 21
22 39 45 39 52 1 17 38 90 50 99 15 11 35 9 35 -3z m-906 -767 c2 -4 1 -14 -4
-22 -7 -11 -12 -12 -21 -3 -6 6 -8 16 -5 22 8 13 23 14 30 3z"/>
</g>
</svg>
